solid ./case_simple_brick_1/1_2
facet normal 0.000000e+00 1.000000e+00 -6.123234e-17
  outer loop
    vertex 2.000000e+00 4.000000e+00 6.000000e+00
    vertex 0.000000e+00 4.000000e+00 0.000000e+00
    vertex 0.000000e+00 4.000000e+00 6.000000e+00
  endloop
endfacet
facet normal 0.000000e+00 1.000000e+00 -6.123234e-17
  outer loop
    vertex 0.000000e+00 4.000000e+00 0.000000e+00
    vertex 2.000000e+00 4.000000e+00 6.000000e+00
    vertex 2.000000e+00 4.000000e+00 0.000000e+00
  endloop
endfacet
facet normal 0.000000e+00 1.000000e+00 -6.123234e-17
  outer loop
    vertex 2.000000e+00 4.000000e+00 0.000000e+00
    vertex 2.000000e+00 4.000000e+00 6.000000e+00
    vertex 2.000000e+00 4.000000e+00 4.000000e+00
  endloop
endfacet
facet normal 0.000000e+00 1.000000e+00 -6.123234e-17
  outer loop
    vertex 2.000000e+00 4.000000e+00 0.000000e+00
    vertex 2.000000e+00 4.000000e+00 4.000000e+00
    vertex 2.000000e+00 4.000000e+00 2.000000e+00
  endloop
endfacet
facet normal -1.000000e+00 0.000000e+00 0.000000e+00
  outer loop
    vertex 0.000000e+00 4.440892e-16 4.000000e+00
    vertex 0.000000e+00 2.000000e+00 2.000000e+00
    vertex 0.000000e+00 0.000000e+00 2.000000e+00
  endloop
endfacet
facet normal -1.000000e+00 0.000000e+00 0.000000e+00
  outer loop
    vertex 0.000000e+00 2.000000e+00 2.000000e+00
    vertex 0.000000e+00 4.000000e+00 0.000000e+00
    vertex 0.000000e+00 2.000000e+00 1.224647e-16
  endloop
endfacet
facet normal -1.000000e+00 0.000000e+00 0.000000e+00
  outer loop
    vertex 0.000000e+00 4.000000e+00 0.000000e+00
    vertex 0.000000e+00 2.000000e+00 2.000000e+00
    vertex 0.000000e+00 4.000000e+00 6.000000e+00
  endloop
endfacet
facet normal -1.000000e+00 0.000000e+00 0.000000e+00
  outer loop
    vertex 0.000000e+00 4.000000e+00 6.000000e+00
    vertex 0.000000e+00 2.000000e+00 2.000000e+00
    vertex 0.000000e+00 2.000000e+00 4.000000e+00
  endloop
endfacet
facet normal -1.000000e+00 0.000000e+00 0.000000e+00
  outer loop
    vertex 0.000000e+00 2.000000e+00 4.000000e+00
    vertex 0.000000e+00 2.000000e+00 2.000000e+00
    vertex 0.000000e+00 4.440892e-16 4.000000e+00
  endloop
endfacet
facet normal -1.000000e+00 0.000000e+00 0.000000e+00
  outer loop
    vertex 0.000000e+00 4.000000e+00 6.000000e+00
    vertex 0.000000e+00 2.000000e+00 4.000000e+00
    vertex 0.000000e+00 2.000000e+00 6.000000e+00
  endloop
endfacet
facet normal 0.000000e+00 6.123234e-17 1.000000e+00
  outer loop
    vertex 0.000000e+00 2.000000e+00 6.000000e+00
    vertex 2.000000e+00 4.000000e+00 6.000000e+00
    vertex 0.000000e+00 4.000000e+00 6.000000e+00
  endloop
endfacet
facet normal 0.000000e+00 6.123234e-17 1.000000e+00
  outer loop
    vertex 2.000000e+00 4.000000e+00 6.000000e+00
    vertex 0.000000e+00 2.000000e+00 6.000000e+00
    vertex 2.000000e+00 2.000000e+00 6.000000e+00
  endloop
endfacet
facet normal 1.000000e+00 0.000000e+00 0.000000e+00
  outer loop
    vertex 2.000000e+00 4.000000e+00 6.000000e+00
    vertex 2.000000e+00 2.000000e+00 4.000000e+00
    vertex 2.000000e+00 4.000000e+00 4.000000e+00
  endloop
endfacet
facet normal 1.000000e+00 0.000000e+00 0.000000e+00
  outer loop
    vertex 2.000000e+00 2.000000e+00 4.000000e+00
    vertex 2.000000e+00 4.000000e+00 6.000000e+00
    vertex 2.000000e+00 2.000000e+00 6.000000e+00
  endloop
endfacet
facet normal 0.000000e+00 -6.123234e-17 -1.000000e+00
  outer loop
    vertex 2.000000e+00 2.000000e+00 1.224647e-16
    vertex 0.000000e+00 4.000000e+00 0.000000e+00
    vertex 2.000000e+00 4.000000e+00 0.000000e+00
  endloop
endfacet
facet normal 0.000000e+00 -6.123234e-17 -1.000000e+00
  outer loop
    vertex 0.000000e+00 4.000000e+00 0.000000e+00
    vertex 2.000000e+00 2.000000e+00 1.224647e-16
    vertex 0.000000e+00 2.000000e+00 1.224647e-16
  endloop
endfacet
facet normal 0.000000e+00 -1.000000e+00 6.123234e-17
  outer loop
    vertex 2.000000e+00 2.000000e+00 1.224647e-16
    vertex 0.000000e+00 2.000000e+00 2.000000e+00
    vertex 0.000000e+00 2.000000e+00 1.224647e-16
  endloop
endfacet
facet normal 0.000000e+00 -1.000000e+00 6.123234e-17
  outer loop
    vertex 0.000000e+00 2.000000e+00 2.000000e+00
    vertex 2.000000e+00 2.000000e+00 1.224647e-16
    vertex 2.000000e+00 2.000000e+00 2.000000e+00
  endloop
endfacet
facet normal 1.000000e+00 0.000000e+00 0.000000e+00
  outer loop
    vertex 2.000000e+00 4.000000e+00 2.000000e+00
    vertex 2.000000e+00 2.000000e+00 1.224647e-16
    vertex 2.000000e+00 4.000000e+00 0.000000e+00
  endloop
endfacet
facet normal 1.000000e+00 0.000000e+00 0.000000e+00
  outer loop
    vertex 2.000000e+00 2.000000e+00 1.224647e-16
    vertex 2.000000e+00 4.000000e+00 2.000000e+00
    vertex 2.000000e+00 2.000000e+00 2.000000e+00
  endloop
endfacet
facet normal 1.000000e+00 0.000000e+00 0.000000e+00
  outer loop
    vertex 2.000000e+00 4.000000e+00 4.000000e+00
    vertex 2.000000e+00 2.000000e+00 2.000000e+00
    vertex 2.000000e+00 4.000000e+00 2.000000e+00
  endloop
endfacet
facet normal 1.000000e+00 0.000000e+00 0.000000e+00
  outer loop
    vertex 2.000000e+00 2.000000e+00 2.000000e+00
    vertex 2.000000e+00 4.000000e+00 4.000000e+00
    vertex 2.000000e+00 0.000000e+00 2.000000e+00
  endloop
endfacet
facet normal 1.000000e+00 0.000000e+00 0.000000e+00
  outer loop
    vertex 2.000000e+00 0.000000e+00 2.000000e+00
    vertex 2.000000e+00 4.000000e+00 4.000000e+00
    vertex 2.000000e+00 4.440892e-16 4.000000e+00
  endloop
endfacet
facet normal 1.000000e+00 0.000000e+00 0.000000e+00
  outer loop
    vertex 2.000000e+00 4.440892e-16 4.000000e+00
    vertex 2.000000e+00 4.000000e+00 4.000000e+00
    vertex 2.000000e+00 2.000000e+00 4.000000e+00
  endloop
endfacet
facet normal 0.000000e+00 -1.000000e+00 6.123234e-17
  outer loop
    vertex 2.000000e+00 2.000000e+00 4.000000e+00
    vertex 0.000000e+00 2.000000e+00 6.000000e+00
    vertex 0.000000e+00 2.000000e+00 4.000000e+00
  endloop
endfacet
facet normal 0.000000e+00 -1.000000e+00 6.123234e-17
  outer loop
    vertex 0.000000e+00 2.000000e+00 6.000000e+00
    vertex 2.000000e+00 2.000000e+00 4.000000e+00
    vertex 2.000000e+00 2.000000e+00 6.000000e+00
  endloop
endfacet
facet normal 0.000000e+00 -1.000000e+00 6.123234e-17
  outer loop
    vertex 2.000000e+00 0.000000e+00 2.000000e+00
    vertex 0.000000e+00 4.440892e-16 4.000000e+00
    vertex 0.000000e+00 0.000000e+00 2.000000e+00
  endloop
endfacet
facet normal 0.000000e+00 -1.000000e+00 6.123234e-17
  outer loop
    vertex 0.000000e+00 4.440892e-16 4.000000e+00
    vertex 2.000000e+00 0.000000e+00 2.000000e+00
    vertex 2.000000e+00 4.440892e-16 4.000000e+00
  endloop
endfacet
facet normal 0.000000e+00 6.123234e-17 1.000000e+00
  outer loop
    vertex 0.000000e+00 4.440892e-16 4.000000e+00
    vertex 2.000000e+00 2.000000e+00 4.000000e+00
    vertex 0.000000e+00 2.000000e+00 4.000000e+00
  endloop
endfacet
facet normal 0.000000e+00 6.123234e-17 1.000000e+00
  outer loop
    vertex 2.000000e+00 2.000000e+00 4.000000e+00
    vertex 0.000000e+00 4.440892e-16 4.000000e+00
    vertex 2.000000e+00 4.440892e-16 4.000000e+00
  endloop
endfacet
facet normal 0.000000e+00 -6.123234e-17 -1.000000e+00
  outer loop
    vertex 2.000000e+00 0.000000e+00 2.000000e+00
    vertex 0.000000e+00 2.000000e+00 2.000000e+00
    vertex 2.000000e+00 2.000000e+00 2.000000e+00
  endloop
endfacet
facet normal 0.000000e+00 -6.123234e-17 -1.000000e+00
  outer loop
    vertex 0.000000e+00 2.000000e+00 2.000000e+00
    vertex 2.000000e+00 0.000000e+00 2.000000e+00
    vertex 0.000000e+00 0.000000e+00 2.000000e+00
  endloop
endfacet
endsolid ./case_simple_brick_1/1_2
