solid ./case_simple_brick_1/2_2
facet normal 0.000000e+00 1.000000e+00 -6.123234e-17
  outer loop
    vertex 5.656854e+00 2.000000e+00 4.242641e+00
    vertex 0.000000e+00 2.000000e+00 1.414214e+00
    vertex 4.242641e+00 2.000000e+00 5.656854e+00
  endloop
endfacet
facet normal 0.000000e+00 1.000000e+00 -6.123234e-17
  outer loop
    vertex 0.000000e+00 2.000000e+00 1.414214e+00
    vertex 5.656854e+00 2.000000e+00 4.242641e+00
    vertex 1.414214e+00 2.000000e+00 0.000000e+00
  endloop
endfacet
facet normal 0.000000e+00 1.000000e+00 -6.123234e-17
  outer loop
    vertex 1.414214e+00 2.000000e+00 0.000000e+00
    vertex 5.656854e+00 2.000000e+00 4.242641e+00
    vertex 4.242641e+00 2.000000e+00 2.828427e+00
  endloop
endfacet
facet normal 0.000000e+00 1.000000e+00 -6.123234e-17
  outer loop
    vertex 1.414214e+00 2.000000e+00 0.000000e+00
    vertex 4.242641e+00 2.000000e+00 2.828427e+00
    vertex 2.828427e+00 2.000000e+00 1.414214e+00
  endloop
endfacet
facet normal 0.000000e+00 -1.000000e+00 6.123234e-17
  outer loop
    vertex 2.828427e+00 0.000000e+00 1.414214e+00
    vertex 2.828427e+00 2.220446e-16 4.242641e+00
    vertex 1.414214e+00 2.220446e-16 2.828427e+00
  endloop
endfacet
facet normal 0.000000e+00 -1.000000e+00 6.123234e-17
  outer loop
    vertex 2.828427e+00 2.220446e-16 4.242641e+00
    vertex 2.828427e+00 0.000000e+00 1.414214e+00
    vertex 4.242641e+00 2.220446e-16 2.828427e+00
  endloop
endfacet
facet normal -7.071068e-01 4.329780e-17 7.071068e-01
  outer loop
    vertex 1.414214e+00 2.220446e-16 2.828427e+00
    vertex 0.000000e+00 2.000000e+00 1.414214e+00
    vertex 0.000000e+00 0.000000e+00 1.414214e+00
  endloop
endfacet
facet normal -7.071068e-01 4.329780e-17 7.071068e-01
  outer loop
    vertex 0.000000e+00 2.000000e+00 1.414214e+00
    vertex 1.414214e+00 2.220446e-16 2.828427e+00
    vertex 4.242641e+00 2.000000e+00 5.656854e+00
  endloop
endfacet
facet normal -7.071068e-01 4.329780e-17 7.071068e-01
  outer loop
    vertex 4.242641e+00 2.000000e+00 5.656854e+00
    vertex 1.414214e+00 2.220446e-16 2.828427e+00
    vertex 2.828427e+00 2.220446e-16 4.242641e+00
  endloop
endfacet
facet normal -7.071068e-01 4.329780e-17 7.071068e-01
  outer loop
    vertex 4.242641e+00 2.000000e+00 5.656854e+00
    vertex 2.828427e+00 2.220446e-16 4.242641e+00
    vertex 4.242641e+00 4.440892e-16 5.656854e+00
  endloop
endfacet
facet normal 7.071068e-01 4.329780e-17 7.071068e-01
  outer loop
    vertex 4.242641e+00 4.440892e-16 5.656854e+00
    vertex 5.656854e+00 2.000000e+00 4.242641e+00
    vertex 4.242641e+00 2.000000e+00 5.656854e+00
  endloop
endfacet
facet normal 7.071068e-01 4.329780e-17 7.071068e-01
  outer loop
    vertex 5.656854e+00 2.000000e+00 4.242641e+00
    vertex 4.242641e+00 4.440892e-16 5.656854e+00
    vertex 5.656854e+00 2.220446e-16 4.242641e+00
  endloop
endfacet
facet normal 7.071068e-01 -4.329780e-17 -7.071068e-01
  outer loop
    vertex 5.656854e+00 2.000000e+00 4.242641e+00
    vertex 4.242641e+00 2.220446e-16 2.828427e+00
    vertex 4.242641e+00 2.000000e+00 2.828427e+00
  endloop
endfacet
facet normal 7.071068e-01 -4.329780e-17 -7.071068e-01
  outer loop
    vertex 4.242641e+00 2.220446e-16 2.828427e+00
    vertex 5.656854e+00 2.000000e+00 4.242641e+00
    vertex 5.656854e+00 2.220446e-16 4.242641e+00
  endloop
endfacet
facet normal -7.071068e-01 -4.329780e-17 -7.071068e-01
  outer loop
    vertex 1.414214e+00 0.000000e+00 1.224647e-16
    vertex 0.000000e+00 2.000000e+00 1.414214e+00
    vertex 1.414214e+00 2.000000e+00 0.000000e+00
  endloop
endfacet
facet normal -7.071068e-01 -4.329780e-17 -7.071068e-01
  outer loop
    vertex 0.000000e+00 2.000000e+00 1.414214e+00
    vertex 1.414214e+00 0.000000e+00 1.224647e-16
    vertex 0.000000e+00 0.000000e+00 1.414214e+00
  endloop
endfacet
facet normal 0.000000e+00 -1.000000e+00 6.123234e-17
  outer loop
    vertex 1.414214e+00 0.000000e+00 1.224647e-16
    vertex 1.414214e+00 2.220446e-16 2.828427e+00
    vertex 0.000000e+00 0.000000e+00 1.414214e+00
  endloop
endfacet
facet normal 0.000000e+00 -1.000000e+00 6.123234e-17
  outer loop
    vertex 1.414214e+00 2.220446e-16 2.828427e+00
    vertex 1.414214e+00 0.000000e+00 1.224647e-16
    vertex 2.828427e+00 0.000000e+00 1.414214e+00
  endloop
endfacet
facet normal 7.071068e-01 -4.329780e-17 -7.071068e-01
  outer loop
    vertex 2.828427e+00 2.000000e+00 1.414214e+00
    vertex 1.414214e+00 0.000000e+00 1.224647e-16
    vertex 1.414214e+00 2.000000e+00 0.000000e+00
  endloop
endfacet
facet normal 7.071068e-01 -4.329780e-17 -7.071068e-01
  outer loop
    vertex 1.414214e+00 0.000000e+00 1.224647e-16
    vertex 2.828427e+00 2.000000e+00 1.414214e+00
    vertex 2.828427e+00 0.000000e+00 1.414214e+00
  endloop
endfacet
facet normal 7.071068e-01 -4.329780e-17 -7.071068e-01
  outer loop
    vertex 4.242641e+00 2.000000e+00 2.828427e+00
    vertex 2.828427e+00 0.000000e+00 1.414214e+00
    vertex 2.828427e+00 2.000000e+00 1.414214e+00
  endloop
endfacet
facet normal 7.071068e-01 -4.329780e-17 -7.071068e-01
  outer loop
    vertex 2.828427e+00 0.000000e+00 1.414214e+00
    vertex 4.242641e+00 2.000000e+00 2.828427e+00
    vertex 4.242641e+00 2.220446e-16 2.828427e+00
  endloop
endfacet
facet normal 0.000000e+00 -1.000000e+00 6.123234e-17
  outer loop
    vertex 4.242641e+00 2.220446e-16 2.828427e+00
    vertex 4.242641e+00 4.440892e-16 5.656854e+00
    vertex 2.828427e+00 2.220446e-16 4.242641e+00
  endloop
endfacet
facet normal 0.000000e+00 -1.000000e+00 6.123234e-17
  outer loop
    vertex 4.242641e+00 4.440892e-16 5.656854e+00
    vertex 4.242641e+00 2.220446e-16 2.828427e+00
    vertex 5.656854e+00 2.220446e-16 4.242641e+00
  endloop
endfacet
endsolid ./case_simple_brick_1/2_2
