solid ./case_simple_brick_1/3_3
facet normal 7.071068e-01 -7.071068e-01 1.478279e-16
  outer loop
    vertex 5.828427e+00 3.000000e+00 1.414214e+00
    vertex 2.828427e+00 0.000000e+00 2.828427e+00
    vertex 4.828427e+00 2.000000e+00 0.000000e+00
  endloop
endfacet
facet normal 7.071068e-01 -7.071068e-01 1.478279e-16
  outer loop
    vertex 2.828427e+00 0.000000e+00 2.828427e+00
    vertex 5.828427e+00 3.000000e+00 1.414214e+00
    vertex 3.828427e+00 1.000000e+00 4.242641e+00
  endloop
endfacet
facet normal -7.071068e-01 7.071068e-01 -1.478279e-16
  outer loop
    vertex 3.414214e+00 3.414214e+00 2.828427e+00
    vertex 3.414214e+00 3.414214e+00 0.000000e+00
    vertex 2.414214e+00 2.414214e+00 1.414214e+00
  endloop
endfacet
facet normal -7.071068e-01 7.071068e-01 -1.478279e-16
  outer loop
    vertex 3.414214e+00 3.414214e+00 0.000000e+00
    vertex 3.414214e+00 3.414214e+00 2.828427e+00
    vertex 4.414214e+00 4.414214e+00 1.414214e+00
  endloop
endfacet
facet normal -5.000000e-01 -5.000000e-01 -7.071068e-01
  outer loop
    vertex 1.000000e+00 3.828427e+00 1.414214e+00
    vertex 2.828427e+00 0.000000e+00 2.828427e+00
    vertex 0.000000e+00 2.828427e+00 2.828427e+00
  endloop
endfacet
facet normal -5.000000e-01 -5.000000e-01 -7.071068e-01
  outer loop
    vertex 2.828427e+00 0.000000e+00 2.828427e+00
    vertex 1.000000e+00 3.828427e+00 1.414214e+00
    vertex 2.414214e+00 2.414214e+00 1.414214e+00
  endloop
endfacet
facet normal -5.000000e-01 -5.000000e-01 -7.071068e-01
  outer loop
    vertex 2.828427e+00 0.000000e+00 2.828427e+00
    vertex 2.414214e+00 2.414214e+00 1.414214e+00
    vertex 4.828427e+00 2.000000e+00 0.000000e+00
  endloop
endfacet
facet normal -5.000000e-01 -5.000000e-01 -7.071068e-01
  outer loop
    vertex 4.828427e+00 2.000000e+00 0.000000e+00
    vertex 2.414214e+00 2.414214e+00 1.414214e+00
    vertex 3.414214e+00 3.414214e+00 0.000000e+00
  endloop
endfacet
facet normal 5.000000e-01 5.000000e-01 -7.071068e-01
  outer loop
    vertex 3.414214e+00 3.414214e+00 0.000000e+00
    vertex 5.828427e+00 3.000000e+00 1.414214e+00
    vertex 4.828427e+00 2.000000e+00 0.000000e+00
  endloop
endfacet
facet normal 5.000000e-01 5.000000e-01 -7.071068e-01
  outer loop
    vertex 5.828427e+00 3.000000e+00 1.414214e+00
    vertex 3.414214e+00 3.414214e+00 0.000000e+00
    vertex 4.414214e+00 4.414214e+00 1.414214e+00
  endloop
endfacet
facet normal 5.000000e-01 5.000000e-01 7.071068e-01
  outer loop
    vertex 5.828427e+00 3.000000e+00 1.414214e+00
    vertex 1.000000e+00 3.828427e+00 4.242641e+00
    vertex 3.828427e+00 1.000000e+00 4.242641e+00
  endloop
endfacet
facet normal 5.000000e-01 5.000000e-01 7.071068e-01
  outer loop
    vertex 1.000000e+00 3.828427e+00 4.242641e+00
    vertex 5.828427e+00 3.000000e+00 1.414214e+00
    vertex 3.414214e+00 3.414214e+00 2.828427e+00
  endloop
endfacet
facet normal 5.000000e-01 5.000000e-01 7.071068e-01
  outer loop
    vertex 3.414214e+00 3.414214e+00 2.828427e+00
    vertex 5.828427e+00 3.000000e+00 1.414214e+00
    vertex 4.414214e+00 4.414214e+00 1.414214e+00
  endloop
endfacet
facet normal 5.000000e-01 5.000000e-01 7.071068e-01
  outer loop
    vertex 2.000000e+00 4.828427e+00 2.828427e+00
    vertex 1.000000e+00 3.828427e+00 4.242641e+00
    vertex 3.414214e+00 3.414214e+00 2.828427e+00
  endloop
endfacet
facet normal -5.000000e-01 -5.000000e-01 7.071068e-01
  outer loop
    vertex 1.000000e+00 3.828427e+00 4.242641e+00
    vertex 2.828427e+00 0.000000e+00 2.828427e+00
    vertex 3.828427e+00 1.000000e+00 4.242641e+00
  endloop
endfacet
facet normal -5.000000e-01 -5.000000e-01 7.071068e-01
  outer loop
    vertex 2.828427e+00 0.000000e+00 2.828427e+00
    vertex 1.000000e+00 3.828427e+00 4.242641e+00
    vertex 0.000000e+00 2.828427e+00 2.828427e+00
  endloop
endfacet
facet normal -7.071068e-01 7.071068e-01 -1.478279e-16
  outer loop
    vertex 1.000000e+00 3.828427e+00 4.242641e+00
    vertex 1.000000e+00 3.828427e+00 1.414214e+00
    vertex 0.000000e+00 2.828427e+00 2.828427e+00
  endloop
endfacet
facet normal -7.071068e-01 7.071068e-01 -1.478279e-16
  outer loop
    vertex 1.000000e+00 3.828427e+00 1.414214e+00
    vertex 1.000000e+00 3.828427e+00 4.242641e+00
    vertex 2.000000e+00 4.828427e+00 2.828427e+00
  endloop
endfacet
facet normal 5.000000e-01 5.000000e-01 -7.071068e-01
  outer loop
    vertex 1.000000e+00 3.828427e+00 1.414214e+00
    vertex 3.414214e+00 3.414214e+00 2.828427e+00
    vertex 2.414214e+00 2.414214e+00 1.414214e+00
  endloop
endfacet
facet normal 5.000000e-01 5.000000e-01 -7.071068e-01
  outer loop
    vertex 3.414214e+00 3.414214e+00 2.828427e+00
    vertex 1.000000e+00 3.828427e+00 1.414214e+00
    vertex 2.000000e+00 4.828427e+00 2.828427e+00
  endloop
endfacet
endsolid ./case_simple_brick_1/3_3
